<?xml version="1.0" encoding="UTF-8" standalone="no"?>
<svg
   viewBox="0 0 1000 500"
   version="1.1"
   id="svg20"
   sodipodi:docname="wave.svg"
   width="1000"
   height="500"
   inkscape:version="1.2.2 (b0a8486541, 2022-12-01, custom)"
   xml:space="preserve"
   xmlns:inkscape="http://www.inkscape.org/namespaces/inkscape"
   xmlns:sodipodi="http://sodipodi.sourceforge.net/DTD/sodipodi-0.dtd"
   xmlns="http://www.w3.org/2000/svg"
   xmlns:svg="http://www.w3.org/2000/svg"><defs
     id="defs24" /><sodipodi:namedview
     id="namedview22"
     pagecolor="#ffffff"
     bordercolor="#999999"
     borderopacity="1"
     inkscape:showpageshadow="0"
     inkscape:pageopacity="0"
     inkscape:pagecheckerboard="0"
     inkscape:deskcolor="#d1d1d1"
     showgrid="false"
     inkscape:zoom="0.83819444"
     inkscape:cx="507.04225"
     inkscape:cy="233.83596"
     inkscape:window-width="1920"
     inkscape:window-height="985"
     inkscape:window-x="1920"
     inkscape:window-y="0"
     inkscape:window-maximized="1"
     inkscape:current-layer="svg20"
     showguides="true"><sodipodi:guide
       position="272.88063,368.04374"
       orientation="1,0"
       id="guide11125"
       inkscape:locked="false" /></sodipodi:namedview><path
     fill="#24d4e0"
     fill-opacity="1"
     d="m 473.21206,366.28176 11.52127,-19.14456 c 7.47881,-12.42732 40.92059,-14.30924 66.04298,-32.84961 24.86764,-17.84727 42.71858,-13.33208 67.4768,-3.45544 25.12256,9.18355 53.14926,-0.58602 77.56998,-6.84769 18.25153,-22.03433 -10.92402,-66.84835 14.19822,-103.23602 C 734.92535,164.36078 863.25207,127.88842 888.37445,82.317176 913.16924,36.05286 896.97375,43.671613 878.22568,14.774893 864.18845,-8.3600302 974.9442,0.14076206 987.68757,0.14076206 h 12.37923 V 499.17157 h -12.48833 -62.51488 -74.63897 -75.00317 -75.00299 -75.00332 -74.63883 l -47.56851,0.45214 -0.0475,0.2095 c -6.19049,-30.66676 -50.25509,-72.95008 -35.59977,-121.31116 z"
     id="path18"
     style="fill:#24d4e0;fill-opacity:1;stroke-width:0.79428"
     sodipodi:nodetypes="csccccccsccccccccccccc" /><path
     fill="#24d4e0"
     fill-opacity="1"
     d="m 174.68268,14.96876 -4.40276,19.884808 c -1.39878,6.317501 -28.06158,16.436548 -38.67304,24.945463 -10.50521,8.194187 -10.25347,24.260463 -10.25347,24.260463 -2.44479,4.887655 -17.52884,17.076126 -27.87571,20.028196 -7.68613,10.05538 -35.825938,7.03103 -46.38908,23.61192 -10.470543,16.57979 -47.58803206,17.93993 -58.126416,38.67436 -10.39744,21.04626 -3.544942,17.52085 4.4895979,30.49808 6.01976604,10.39445 -41.0063679,7.09415 -46.4144779,7.1568 l -5.253559,0.0609 -1.349068,-225.701322 5.299855,-0.06142 26.530419,-0.307291 31.6757029,-0.366897 31.8302541,-0.368683 31.830181,-0.368693 31.830322,-0.368674 31.675639,-0.366897 20.18617,-0.438325 0.0196,-0.09498 c 2.71006,13.839512 38.27134,-1.927046 32.18257,20.0177095 z"
     id="path18-7"
     style="fill:#24d4e0;fill-opacity:1;stroke-width:0.347994"
     sodipodi:nodetypes="csccccccsccccccccccccc" /><g
     id="g11083"
     transform="matrix(0.35780406,0,0,0.45260233,-19.888,211.7715)"><g
       id="g12809"
       transform="matrix(0.70546326,0,0,0.65880954,85.011426,168.44475)"><path
         d="m 686.53634,740.28385 c 12.1195,8.122 25.928,49.18 25.928,49.18 0,0 -43.22554,2.81814 -55.34146,-5.29978 a 26.41318,26.41318 0 1 1 29.41342,-43.88023 z"
         fill="#f1f1f1"
         id="path10954"
         transform="translate(-181.41852,-108.70781)" /><path
         d="m 712.95643,789.15479 -0.67712,0.53994 C 687.5782,758.707 650.30363,748.00387 649.93,747.89936 l 0.23314,-0.83406 c 0.37621,0.10507 37.91278,10.87681 62.79329,42.08949 z"
         fill="#ffffff"
         id="path10956"
         transform="translate(-181.41852,-108.70781)" /><path
         d="m 751.35233,723.90385 c -0.77266,20.17711 -39.12933,66.25383 -39.12933,66.25383 0,0 -34.69967,-48.88913 -33.92928,-69.059 a 36.556223,36.556223 0 1 1 73.05861,2.80521 z"
         fill="#f1f1f1"
         id="path10958"
         transform="translate(-181.41852,-108.70781)" /><path
         d="m 712.94439,790.51313 -1.12779,-0.40593 c 18.583,-51.60164 4.13625,-103.294 3.98818,-103.81014 l 1.15206,-0.33076 c 0.14928,0.51956 14.70547,52.57045 -4.01245,104.54683 z"
         fill="#ffffff"
         id="path10960"
         transform="translate(-181.41852,-108.70781)" /><path
         d="M 613.62492,609.09746 H 284.88786 A 22.11531,22.11531 0 0 1 262.79765,587.00712 V 211.326 a 22.11531,22.11531 0 0 1 22.09021,-22.09033 h 328.73706 a 22.11533,22.11533 0 0 1 22.09033,22.09033 v 375.68112 a 22.11533,22.11533 0 0 1 -22.09033,22.09034 z"
         fill="#e6e6e6"
         id="path10962"
         transform="translate(-181.41852,-108.70781)" /><path
         d="m 598.26384,590.68632 h -298.0149 a 19.63606,19.63606 0 0 1 -19.61376,-19.61377 v -343.812 a 19.63606,19.63606 0 0 1 19.61376,-19.61377 h 298.0149 a 19.636,19.636 0 0 1 19.61377,19.61377 v 343.812 a 19.636,19.636 0 0 1 -19.61377,19.61377 z"
         fill="#ffffff"
         id="path10964"
         transform="translate(-181.41852,-108.70781)" /><path
         d="M 586.40816,256.58077 H 436.06832 a 4.90308,4.90308 0 1 1 0,-9.80615 h 150.33984 a 4.90308,4.90308 0 1 1 0,9.80615 z"
         fill="#e4e4e4"
         id="path10966"
         transform="translate(-181.41852,-108.70781)" /><path
         d="M 586.40816,275.95529 H 436.06832 a 4.90332,4.90332 0 0 1 0,-9.80664 h 150.33984 a 4.90332,4.90332 0 0 1 0,9.80664 z"
         fill="#e4e4e4"
         id="path10968"
         transform="translate(-181.41852,-108.70781)" /><path
         d="m 501.237,295.3298 h -65.1687 a 4.90332,4.90332 0 0 1 0,-9.80664 h 65.1687 a 4.90332,4.90332 0 1 1 0,9.80664 z"
         fill="#e4e4e4"
         id="path10970"
         transform="translate(-181.41852,-108.70781)" /><path
         d="M 568.27889,373.58077 H 330.93905 a 4.90308,4.90308 0 1 1 0,-9.80615 h 237.33984 a 4.90308,4.90308 0 1 1 0,9.80615 z"
         fill="#e4e4e4"
         id="path10972"
         transform="translate(-181.41852,-108.70781)" /><path
         d="M 568.27889,392.95529 H 330.93905 a 4.90332,4.90332 0 1 1 0,-9.80664 h 237.33984 a 4.90332,4.90332 0 0 1 0,9.80664 z"
         fill="#e4e4e4"
         id="path10974"
         transform="translate(-181.41852,-108.70781)" /><path
         d="M 568.27889,436.93462 H 330.93905 a 4.90308,4.90308 0 1 1 0,-9.80616 h 237.33984 a 4.90308,4.90308 0 1 1 0,9.80616 z"
         fill="#e4e4e4"
         id="path10976"
         transform="translate(-181.41852,-108.70781)" /><path
         d="M 568.27889,456.30913 H 330.93905 a 4.90332,4.90332 0 1 1 0,-9.80664 h 237.33984 a 4.90332,4.90332 0 1 1 0,9.80664 z"
         fill="#e4e4e4"
         id="path10978"
         transform="translate(-181.41852,-108.70781)" /><path
         d="M 568.27889,500.28846 H 330.93905 a 4.90308,4.90308 0 1 1 0,-9.80616 h 237.33984 a 4.90308,4.90308 0 1 1 0,9.80616 z"
         fill="#e4e4e4"
         id="path10980"
         transform="translate(-181.41852,-108.70781)" /><path
         d="M 568.27889,519.663 H 330.93905 a 4.90332,4.90332 0 0 1 0,-9.80664 h 237.33984 a 4.90332,4.90332 0 1 1 0,9.80664 z"
         fill="#e4e4e4"
         id="path10982"
         transform="translate(-181.41852,-108.70781)" /><path
         d="m 568.237,573.3298 h -65.1687 a 4.90332,4.90332 0 0 1 0,-9.80664 h 65.1687 a 4.90332,4.90332 0 0 1 0,9.80664 z"
         fill="#18bec5"
         id="path10984"
         transform="translate(-181.41852,-108.70781)" /><path
         d="m 394.45162,271.62619 a 46.44905,46.44905 0 0 1 -10.10986,28.99 45.77,45.77 0 0 1 -7.2002,7.26 46.4361,46.4361 0 0 1 -25.48,10.22 c -1.27,0.11 -2.55029,0.16 -3.84033,0.16 a 46.39674,46.39674 0 0 1 -7.62988,-0.62994 c -0.88965,-0.14 -1.75977,-0.31006 -2.62989,-0.51 a 43.81,43.81 0 0 1 -4.48,-1.25 46.40822,46.40822 0 0 1 -13.26025,-6.96 c -1.06983,-0.8 -2.09961,-1.65 -3.09961,-2.55 a 42.02129,42.02129 0 0 1 -3.47022,-3.46 c -0.29,-0.32 -0.58007,-0.65 -0.85986,-0.98 a 46.61748,46.61748 0 1 1 82.06006,-30.29 z"
         fill="#e4e4e4"
         id="path10986"
         transform="translate(-181.41852,-108.70781)" /><circle
         cx="164.77979"
         cy="159.72327"
         fill="#9e616a"
         id="circle10988"
         r="19.10891" /><path
         d="m 367.47164,259.11618 a 7.7307,7.7307 0 0 0 -1.37012,-4.8 l -0.68994,-0.98 c -2.49023,-4.8 -6.6001,-9.12 -9.60986,-12.28 -2.26026,-2.37 -4.52,-3.51 -6.69043,-3.4 a 5.99035,5.99035 0 0 0 -4.08985,2.04 14.71588,14.71588 0 0 0 -14,7.99 c -9.1499,4.82995 -6.41992,19.09 -6.39013,19.24 l 2.21045,3.71 0.25,-0.47 c 0,-0.01 0.0298,-0.05 0.0698,-0.13 0.43018,-0.77 2.77,-5.05 4.3501,-7.76 a 7.67049,7.67049 0 0 1 2.25,-2.32 11.20166,11.20166 0 0 1 4.96,-1.87 l 4.85986,-0.63 -1.83984,2.76 h 13.2397 l 5.08985,-0.6 c 0.51025,2.09 4.55029,10.2 5.04,11.18 l 0.04,0.08 0.27,0.55 1.51025,-4.15 a 16.0467,16.0467 0 0 0 0.54014,-8.16 z"
         fill="#2f2e41"
         id="path10990"
         transform="translate(-181.41852,-108.70781)" /><path
         d="m 319.96148,309.00615 c 0.82,-1.08 5.07,-6.12 14.85,-8.79 l 5.18,-5.77 20.77,-3.31 10.57,5.84 13.01,3.64 a 45.75853,45.75853 0 0 1 -7.2,7.26 46.43694,46.43694 0 0 1 -25.48,10.22 c -1.27,0.11 -2.55,0.16 -3.84,0.16 a 46.39209,46.39209 0 0 1 -7.63,-0.63 c -0.89,-0.14 -1.76,-0.31 -2.63,-0.51 a 43.76988,43.76988 0 0 1 -4.48,-1.25 46.17761,46.17761 0 0 1 -13.12,-6.86 c -0.05,-0.03 -0.09,-0.07 -0.14,-0.1 z"
         fill="#18bec5"
         id="path10992"
         transform="translate(-181.41852,-108.70781)" /><path
         d="M 639.46319,46.892073 H 3.5618857 A 3.5657749,5.9555568 0 0 1 0,40.943012 V 5.9490609 A 3.5657749,5.9555568 0 0 1 3.5618857,0 H 639.46319 a 3.5657749,5.9555568 0 0 1 3.56189,5.9490609 V 40.943012 a 3.5657749,5.9555568 0 0 1 -3.56189,5.949061 z"
         fill="#18bec5"
         id="path10994"
         style="stroke-width:1.55135" /><circle
         id="a85e5c17-ea9f-4706-8082-8afb2e9db2dc"
         data-name="Ellipse 90"
         cx="17.220209"
         cy="10.84298"
         fill="#ffffff"
         r="4.21275" /><circle
         id="b621e56c-df3f-4a6b-a567-05f014ec6f14"
         data-name="Ellipse 91"
         cx="33.21043"
         cy="10.84298"
         fill="#ffffff"
         r="4.21275" /><circle
         id="f2c0e2e9-064c-4994-bbee-183d3c3fcd77"
         data-name="Ellipse 92"
         cx="49.201401"
         cy="10.84298"
         fill="#ffffff"
         r="4.21275" /><path
         d="m 624.37132,15.18868 h -28.37539 a 2.1019562,4.8349317 0 0 1 0,-9.6695438 h 28.37539 a 2.1019562,4.8349317 0 0 1 0,9.6695438 z"
         fill="#ffffff"
         id="path11003"
         style="stroke-width:2.33718" /><path
         d="m 624.37626,27.851829 h -28.37539 a 2.1019562,4.8349317 0 0 1 0,-9.669544 h 28.37539 a 2.1019562,4.8349317 0 0 1 0,9.669544 z"
         fill="#ffffff"
         id="path11003-3"
         style="stroke-width:2.33718" /><path
         d="m 624.3809,40.219353 h -28.37539 a 2.1019562,4.8349317 0 0 1 0,-9.669544 h 28.37539 a 2.1019562,4.8349317 0 0 1 0,9.669544 z"
         fill="#ffffff"
         id="path11003-6"
         style="stroke-width:2.33718" /><path
         d="m 843.89527,578.07976 a 8.56621,8.56621 0 0 1 1.70826,-13.02376 l -7.02037,-29.621 14.85847,5.42843 4.3887,27.29637 a 8.61268,8.61268 0 0 1 -13.93506,9.92 z"
         fill="#9e616a"
         id="path11005"
         transform="translate(-181.41852,-108.70781)" /><path
         d="m 808.1641,453.95234 5.96312,15.33372 c 0,0 -2.55562,15.33373 1.70375,18.74122 4.25937,3.40749 2.55562,3.4075 2.55562,5.96312 a 13.10381,13.10381 0 0 0 5.11124,9.37061 c 3.40749,2.55562 18.74122,54.51991 18.74122,54.51991 h 15.33372 a 48.04248,48.04248 0 0 1 0,-11.92623 c 0.85188,-5.96312 -2.55562,-21.29684 -4.25937,-23.85246 -1.70375,-2.55562 0,-5.96312 0,-11.07436 0,-5.11124 -3.40749,-7.66686 -3.40749,-16.1856 0,-8.51874 -10.22248,-74.96487 -9.37061,-82.63174 0.85187,-7.66687 -8.51874,-14.48185 -8.51874,-14.48185 h -8.51873 z"
         fill="#e4e4e4"
         id="path11007"
         transform="translate(-181.41852,-108.70781)" /><polygon
         points="665.962,625.512 665.96,669.223 654.628,669.223 649.237,625.511 "
         fill="#9e616a"
         id="polygon11009" /><path
         d="m 850.26912,788.91611 -36.54109,-10e-4 v -0.46219 A 14.22356,14.22356 0 0 1 827.95084,774.23 h 9.1e-4 l 6.67471,-5.06379 12.45354,5.06455 3.18981,1.3e-4 z"
         fill="#2f2e41"
         id="path11011"
         transform="translate(-181.41852,-108.70781)" /><polygon
         points="577.308,627.849 562.289,668.899 551.647,665.005 561.6,622.102 "
         fill="#9e616a"
         id="polygon11013" /><path
         d="m 742.648,788.91611 -34.3166,-12.55477 0.15879,-0.43406 a 14.22357,14.22357 0 0 1 18.24325,-8.47077 l 8.5e-4,3.1e-4 8.0081,-2.46252 9.95566,9.03466 2.99562,1.096 z"
         fill="#2f2e41"
         id="path11015"
         transform="translate(-181.41852,-108.70781)" /><path
         d="m 822.41119,573.53008 c 0,0 -7.66687,37.48244 5.11124,34.07494 12.77811,-3.4075 7.66686,-35.77869 7.66686,-35.77869 z"
         fill="#a0616a"
         id="path11017"
         transform="translate(-181.41852,-108.70781)" /><path
         d="m 766.18753,542.43669 c 0,0 -10.22248,13.63 -10.22248,21.29684 0,7.66684 -3.4075,75.81675 -3.4075,75.81675 0,0 -25.86476,101.48346 -20.75355,106.59472 5.11121,5.11126 23.00059,10.22249 25.55621,7.66687 2.55562,-2.55562 25.01289,-107.44658 25.01289,-107.44658 l 21.2969,-57.07555 19.59309,81.77986 1.70375,86.89111 c 0,0 21.29684,5.11124 25.55621,1.70375 4.25937,-3.40749 5.11124,-86.03923 0,-115.00294 -5.11124,-28.96371 0.85187,-95.40984 0.85187,-95.40984 z"
         fill="#2f2e41"
         id="path11019"
         transform="translate(-181.41852,-108.70781)" /><circle
         cx="618.93207"
         cy="226.29765"
         fill="#9e616a"
         id="circle11021"
         r="25.55621" /><path
         d="m 767.89128,397.61818 c 0,0 7.35831,-10.96385 21.84016,-25.44571 7.66686,-2.55562 20.95087,-1.06611 25.5562,0 21.29684,28.11183 22.63717,26.24377 28.1808,41.95076 1.43753,4.073 2.1563,7.98632 1.5174,11.18084 -2.55562,12.77811 5.53718,116.28075 6.389,119.68824 0.85182,3.40749 6.815,7.66686 0.85187,7.66686 -5.96313,0 -96.26171,-3.40749 -94.558,-5.96311 1.70371,-2.55562 10.22257,-149.07788 10.22257,-149.07788 z"
         fill="#e4e4e4"
         id="path11023"
         transform="translate(-181.41852,-108.70781)" /><polygon
         points="608.196,380.486 595.384,440.445 582.572,436.864 "
         opacity="0.1"
         style="isolation:isolate"
         id="polygon11025" /><path
         d="m 792.61905,358.68155 a 43.48878,43.48878 0 0 0 6.57469,-6.03411 14.59365,14.59365 0 0 0 3.56154,-8.0453 8.86094,8.86094 0 0 0 -3.37856,-7.85457 c -2.43412,-1.7196 -6.14589,-1.61954 -8.16629,0.57133 0.97608,-3.15529 1.86756,-6.87695 -0.10939,-9.52275 -1.79926,-2.408 -5.15566,-2.81718 -8.05488,-3.61112 a 23.342,23.342 0 0 1 -13.49393,-10.05242 l 4.92348,1.01886 -0.54909,-3.50988 4.08006,1.41865 0.0357,-4.8885 4.2109,2.356 a 26.88448,26.88448 0 0 1 18.93963,-7.05664 20.94173,20.94173 0 0 1 10.0423,2.75692 14.70109,14.70109 0 0 1 6.54346,7.95111 c 2.16731,-2.24978 6.03162,-2.07581 8.61372,-0.31754 2.5821,1.75827 4.09867,4.6997 5.14023,7.64485 a 32.99606,32.99606 0 0 1 1.388,17.65322 26.27915,26.27915 0 0 1 -9.02589,15.08357 29.30482,29.30482 0 0 1 -14.70023,5.84754 54.85691,54.85691 0 0 1 -15.9502,-0.682"
         fill="#2f2e41"
         id="path11027"
         transform="translate(-181.41852,-108.70781)" /><path
         d="m 756.01257,577.96926 a 8.56625,8.56625 0 0 0 -1.70826,-13.02377 l 7.02037,-29.621 -14.85847,5.42844 -4.3887,27.29636 a 8.61268,8.61268 0 0 0 13.93506,9.92 z"
         fill="#9e616a"
         id="path11029"
         transform="translate(-181.41852,-108.70781)" /><path
         d="m 776.41,397.61818 h -8.51873 c 0,0 -9.37061,6.815 -8.51874,14.48185 0.85187,7.66685 -9.37061,74.113 -9.37061,82.63174 0,8.51874 -3.40749,11.07436 -3.40749,16.1856 0,5.11124 1.70374,8.51873 0,11.07436 -1.70374,2.55563 -5.11125,17.88934 -4.25937,23.85246 a 48.04248,48.04248 0 0 1 0,11.92623 h 15.33372 c 0,0 15.33373,-51.96429 18.74122,-54.51991 a 13.10381,13.10381 0 0 0 5.11124,-9.37061 c 0,-2.55562 -1.70374,-2.55562 2.55562,-5.96312 4.25936,-3.4075 1.70375,-18.74122 1.70375,-18.74122 l 5.96312,-15.33372 z"
         fill="#e4e4e4"
         id="path11031"
         transform="translate(-181.41852,-108.70781)" /><path
         d="M 1017.3908,791.29219 H 550.09679 a 1.19069,1.19069 0 1 1 0,-2.38137 h 467.29401 a 1.19069,1.19069 0 1 1 0,2.38137 z"
         transform="translate(-181.41852,-108.70781)"
         fill="#cacaca"
         id="path11033" /></g></g></svg>
